{"title":"Furious 7(2015)MPEG-4[DaScubaDude]","uid":13322310,"size":1371611407,"categoryP":"video","categoryS":"movies","magnet":"?xt=urn:btih:a7ce41f1f52547e5982cc48f7c6aa5fdc255a535&amp;dn=Furious+7%282015%29MPEG-4%5BDaScubaDude%5D&amp;tr=udp%3A%2F%2Ftracker.leechers-paradise.org%3A6969&amp;tr=udp%3A%2F%2Fzer0day.ch%3A1337&amp;tr=udp%3A%2F%2Fopen.demonii.com%3A1337&amp;tr=udp%3A%2F%2Ftracker.coppersurfer.tk%3A6969&amp;tr=udp%3A%2F%2Fexodus.desync.com%3A6969","seeders":1,"leechers":0,"uploader":"dascuba","files":1,"time":1453869660,"description":"Furious 7 (2015)\r\nFurious Seven (original title)\r\nPG-13 | 2h 17min | Action, Crime, Thriller | 3 April 2015 (USA)\r\nDeckard Shaw seeks revenge against Dominic Toretto and his family for his comatose brother.\r\nDirector: James Wan\r\nWriters: Chris Morgan, Gary Scott Thompson (characters)\r\nStars: Vin Diesel, Paul Walker, Dwayne Johnson \r\n\r\nGeneral\r\nComplete name                            :Furious 7FURIOUS_7_Title7.mp4\r\nFormat                                   : MPEG-4\r\nFormat profile                           : Base Media\r\nCodec ID                                 : isom\r\nFile size                                : 1.28 GiB\r\nDuration                                 : 2h 17mn\r\nOverall bit rate                         : 1 332 Kbps\r\nMovie name                               : FURIOUS_7\r\nWriting application                      : Lavf54.6.100\r\n\r\nVideo\r\nID                                       : 1\r\nFormat                                   : AVC\r\nFormat/Info                              : Advanced Video Codec\r\nFormat profile                           :   \r\nFormat settings, CABAC                   : No\r\nFormat settings, ReFrames                : 6 frames\r\nCodec ID                                 : avc1\r\nCodec ID/Info                            : Advanced Video Coding\r\nDuration                                 : 2h 17mn\r\nBit rate                                 : 1 197 Kbps\r\nWidth                                    : 720 pixels\r\nHeight                                   : 404 pixels\r\nDisplay aspect ratio                     : 16:9\r\nFrame rate mode                          : Constant\r\nFrame rate                               : 29.970 fps\r\nColor space                              : YUV\r\nChroma subsampling                       : 4:2:0\r\nBit depth                                : 8 bits\r\nScan type                                : Progressive\r\nBits/(Pixel*Frame)                       : 0.137\r\nStream size                              : 1.15 GiB (90%)\r\n\r\nAudio\r\nID                                       : 2\r\nFormat                                   : AAC\r\nFormat/Info                              : Advanced Audio Codec\r\nFormat profile                           : LC\r\nCodec ID                                 : 40\r\nDuration                                 : 2h 17mn\r\nBit rate mode                            : Constant\r\nBit rate                                 : 128 Kbps\r\nChannel(s)                               : 2 channels\r\nChannel positions                        : Front: L R\r\nSampling rate                            : 44.1 KHz\r\nCompression mode                         : Lossy\r\nStream size                              : 126 MiB (10%)","torrent":{"xt":"urn:btih:a7ce41f1f52547e5982cc48f7c6aa5fdc255a535","amp;dn":"Furious+7%282015%29MPEG-4%5BDaScubaDude%5D","amp;tr":["udp%3A%2F%2Ftracker.leechers-paradise.org%3A6969","udp%3A%2F%2Fzer0day.ch%3A1337","udp%3A%2F%2Fopen.demonii.com%3A1337","udp%3A%2F%2Ftracker.coppersurfer.tk%3A6969","udp%3A%2F%2Fexodus.desync.com%3A6969"],"infoHash":"a7ce41f1f52547e5982cc48f7c6aa5fdc255a535","infoHashBuffer":{"type":"Buffer","data":[167,206,65,241,245,37,71,229,152,44,196,143,124,106,165,253,194,85,165,53]},"announce":[],"urlList":[]}}